# xmcd
#
# Track frame offsets:
#	183
#	21593
#	40235
#	56608
#	81875
#	91628
#	111305
#	126428
#	144033
#	163218
#
# Disc length: 2421 seconds
#
# Revision: 0
# Processed by: cddbd v1.4PL0 Copyright (c) Steve Scherf et al.
# Submitted via: EasyCDDAExtractor 4.6.9.1
#
DISCID=8309730a
DTITLE=이선희 - 6
DYEAR=1900
DGENRE=
TTITLE0=왜 나만
TTITLE1=오늘 이밤도
TTITLE2=그리운 나라
TTITLE3=까만밤 환한 방에서
TTITLE4=짝사랑
TTITLE5=추억의 책장을 넘기며
TTITLE6=그리움은 가고
TTITLE7=내마음 가는곳
TTITLE8=이젠 눈물 흘리지마
TTITLE9=후회
EXTD=
EXTT0=
EXTT1=
EXTT2=
EXTT3=
EXTT4=
EXTT5=
EXTT6=
EXTT7=
EXTT8=
EXTT9=
PLAYORDER=
